<svg width="100%" height="100%" xmlns="http://www.w3.org/2000/svg"><path fill="#e3f4ec" d="M0 0h250v900H0z"/><path d="M62.5 900c4.2-15.8 8.5-31.5 14.6-46.3S91.3 825 101 814c9.8-11 21.2-19.2 29.5-33.5s13.5-34.6 25.7-42.9c12.3-8.3 31.7-4.5 48.5-6.6 16.8-2.2 31.1-10.4 45.3-18.5V900Z" fill="#d8f0e5"/><path d="M89.3 900c3.6-13.5 7.2-27 12.5-39.7s12.2-24.6 20.5-34c8.4-9.5 18.2-16.5 25.3-28.7 7.1-12.3 11.5-29.7 22-36.8 10.6-7.1 27.2-3.8 41.6-5.7s26.6-8.8 38.8-15.8V900Z" fill="#c3e8d7"/><path d="M116.1 900c3-11.3 6-22.5 10.4-33.1s10.1-20.5 17.1-28.3c7-7.9 15.1-13.8 21-24 6-10.2 9.7-24.7 18.4-30.6 8.8-5.9 22.6-3.2 34.6-4.7 12.1-1.6 22.2-7.4 32.4-13.2V900Z" fill="#ade0c9"/><path d="M142.9 900c2.4-9 4.8-18 8.3-26.5 3.5-8.4 8.1-16.3 13.7-22.6 5.5-6.3 12.1-11 16.8-19.2 4.8-8.1 7.7-19.8 14.7-24.5s18.1-2.5 27.7-3.8c9.6-1.2 17.8-5.9 25.9-10.5V900Z" fill="#97d8bb"/><path d="M169.6 900c1.9-6.8 3.7-13.5 6.3-19.9 2.6-6.3 6.1-12.2 10.3-17 4.1-4.7 9-8.2 12.6-14.3 3.5-6.1 5.8-14.8 11-18.4 5.3-3.5 13.6-1.9 20.8-2.8 7.2-1 13.3-4.5 19.4-8V900Z" fill="#80d0ad"/><path d="M196.4 900c1.2-4.5 2.4-9 4.2-13.2 1.8-4.3 4.1-8.2 6.8-11.4 2.8-3.1 6.1-5.5 8.5-9.5 2.3-4.1 3.8-9.9 7.3-12.3s9.1-1.3 13.9-1.9 8.8-2.9 12.9-5.3V900Z" fill="#67c79f"/><path d="M223.2 900c.6-2.3 1.2-4.5 2.1-6.6s2-4.1 3.4-5.7 3-2.7 4.2-4.8c1.2-2 2-4.9 3.7-6.1 1.8-1.2 4.5-.6 6.9-.9 2.4-.4 4.5-1.5 6.5-2.7V900Z" fill="#5ac398"/><path d="M187.5 0c-10 13.9-20.1 27.7-22.3 44.3-2.3 16.5 3.3 35.6-2.8 49.4-6.1 13.9-23.9 22.4-39.4 29.3-15.4 7-28.5 12.4-41 19s-24.4 14.4-38 22.2-28.8 15.5-44 23.3V0Z" fill="#d8f0e5"/><path d="M160.7 0c-8.6 11.9-17.2 23.8-19.1 37.9-1.9 14.2 2.8 30.6-2.4 42.5-5.3 11.8-20.5 19.1-33.7 25.1-13.3 5.9-24.5 10.6-35.2 16.2-10.7 5.7-21 12.4-32.6 19-11.6 6.7-24.7 13.4-37.7 20V0Z" fill="#c3e8d7"/><path d="M133.9 0c-7.1 9.9-14.3 19.8-15.9 31.6s2.4 25.5-2 35.4c-4.4 9.8-17.1 15.9-28.1 20.9s-20.4 8.8-29.3 13.5c-9 4.8-17.5 10.3-27.2 15.9-9.7 5.5-20.5 11.1-31.4 16.6V0Z" fill="#ade0c9"/><path d="M107.1 0c-5.7 7.9-11.4 15.9-12.7 25.3s1.9 20.4-1.6 28.3-13.7 12.7-22.5 16.7S54 77.4 46.9 81.2c-7.2 3.7-14 8.2-21.8 12.6-7.7 4.5-16.4 8.9-25.1 13.3V0Z" fill="#97d8bb"/><path d="M80.4 0c-4.3 5.9-8.7 11.9-9.6 19-1 7 1.4 15.3-1.2 21.2s-10.3 9.5-16.9 12.5-12.2 5.3-17.6 8.2c-5.3 2.8-10.4 6.1-16.2 9.5C13 73.7 6.5 77 0 80.4V0Z" fill="#80d0ad"/><path d="M53.6 0c-2.9 4-5.8 7.9-6.4 12.6-.6 4.8.9 10.2-.8 14.2-1.8 3.9-6.8 6.4-11.2 8.4-4.5 1.9-8.2 3.5-11.8 5.4-3.5 1.9-7 4.1-10.8 6.3-3.9 2.2-8.3 4.5-12.6 6.7V0Z" fill="#67c79f"/><path d="M26.8 0c-1.4 2-2.9 4-3.2 6.3-.3 2.4.5 5.1-.4 7.1s-3.4 3.2-5.6 4.2-4.1 1.7-5.9 2.7c-1.8.9-3.5 2-5.4 3.2q-3 1.65-6.3 3.3V0Z" fill="#5ac398"/></svg>